# xmcd
#
# Track frame offsets:
# 150
# 14252
# 34692
# 52702
# 69325
# 84247
#
# Disc length: 1423 seconds
#
# Revision: 0
# Processed by: cddbd v1.5.2PL0 Copyright (c) Steve Scherf et al.
# Submitted via: Audion 3.0.2 (http://www.panic.com/audion/)
#
DISCID=37058d06
DTITLE=Various Artist - J POP sayonara
DYEAR=1900
DGENRE=
TTITLE0=Fuyuno inazuma
TTITLE1=nizito sunikanokoro
TTITLE2=gennkiwo dasite
TTITLE3=daniyboyni mimiwo fusaide
TTITLE4=Last Good-Bye
TTITLE5=sayonara
EXTD=
EXTT0=
EXTT1=
EXTT2=
EXTT3=
EXTT4=
EXTT5=
PLAYORDER=
